<?xml version="1.0" encoding="UTF-8"?>
<svg xmlns="http://www.w3.org/2000/svg" viewBox="-2.272 10.496 238.528 54.272" width="238.528" height="54.272" role="img" aria-label="LorIAx">
  <title>LorIAx</title>
  <path d="m 34.496,44.128 c -0.96,0 -1.344,0.192 -1.728,0.96 -0.512,1.024 -1.792,5.248 -2.816,9.024 C 27.136,54.368 24,54.496 20.736,54.56 V 21.152 l 4.992,-1.472 v -3.776 c 0,-0.576 -0.192,-0.704 -0.896,-0.704 H 1.728 v 3.456 c 0,0.64 0.256,1.152 1.024,1.408 2.496,0.832 3.264,1.28 3.264,2.944 v 29.184 c 0,1.856 -0.768,2.304 -3.264,3.136 -0.768,0.256 -1.024,0.768 -1.024,1.408 V 60 h 38.08 V 44.128 Z m 47.103974,-0.96 c 0,-11.136 -6.976,-17.856 -18.176,-17.856 -11.52,0 -19.136,7.232 -19.136,17.792 0,11.072 6.912,17.664 18.048,17.664 11.584,0 19.264,-7.232 19.264,-17.6 z m -14.208,1.472 c 0,8.064 -1.344,11.008 -4.224,11.008 -2.624,0 -4.736,-2.496 -4.736,-14.208 0,-8.064 1.408,-10.944 4.224,-10.944 2.624,0 4.736,2.496 4.736,14.144 z m 39.231996,15.04 v -3.776 l -4.416,-1.408 V 39.584 c 1.664,-0.96 3.52,-1.472 5.76,-1.472 0.576,0 1.344,0 2.112,0.064 0.768,0.064 1.536,0.192 2.048,0.32 2.048,-3.584 2.752,-9.216 1.536,-13.184 -6.144,0 -9.28,3.072 -11.456,10.752 v -3.2 l 0.192,-7.552 -16.960004,2.816 v 3.328 c 0,0.704 0.256,1.024 0.832,1.216 1.792,0.576 1.984,0.896 1.984,2.112 v 17.664 c 0,1.344 -0.384,2.048 -1.984,2.816 -0.64,0.32 -0.832,0.576 -0.832,1.28 V 60 h 20.544004 c 0.512,0 0.64,-0.064 0.64,-0.32 z m 10.75198,-41.152 c 0,0.64 0.256,1.28 1.024,1.536 2.496,0.832 3.264,1.28 3.264,2.944 v 29.376 c 0,1.664 -0.768,2.112 -3.264,2.944 -0.768,0.256 -1.024,0.896 -1.024,1.536 V 60 h 22.656 c 0.704,0 0.896,-0.128 0.896,-0.512 V 55.84 l -4.544,-1.6 V 21.152 l 4.544,-1.6 v -3.648 c 0,-0.576 -0.192,-0.704 -0.896,-0.704 h -22.656 z m 41.79195,40.96 v -3.776 l -4.608,-1.408 1.92,-6.4 h 13.632 l 1.728,4.736 c 0.448,1.344 -0.256,1.792 -3.2,2.688 -0.832,0.256 -1.088,0.768 -1.088,1.408 V 60 h 23.616 c 0.704,0 0.896,-0.128 0.896,-0.512 v -3.776 l -3.712,-1.472 -15.296,-39.744 c -3.392,0.576 -10.24,2.304 -13.184,3.648 l -12.352,34.816 c -0.448,1.344 -1.344,1.728 -3.392,2.368 -0.768,0.256 -1.216,0.768 -1.216,1.408 V 60 h 15.36 c 0.704,0 0.896,-0.128 0.896,-0.512 z m -0.896,-17.536 4.416,-14.656 5.312,14.656 z m 59.07205,-12.416 c 0,0.576 0.128,0.896 0.832,1.28 1.472,0.896 2.304,1.28 1.856,2.24 l -2.624,5.312 -5.248,-7.104 2.112,-1.088 V 26.4 c 0,-0.256 -0.128,-0.32 -0.64,-0.32 h -20.352 v 3.456 c 0,0.576 0.128,0.96 0.832,1.28 2.304,0.96 3.52,1.408 5.056,3.52 l 5.952,8.32 -8.128,10.752 c -0.704,0.96 -1.344,1.28 -2.88,1.984 -0.704,0.32 -0.832,0.576 -0.832,1.152 V 60 h 12.8 c 0.512,0 0.64,-0.064 0.64,-0.32 v -3.712 l -2.88,-1.6 3.968,-7.872 4.288,6.016 c 1.152,1.664 1.024,2.176 -0.384,2.88 -0.704,0.32 -0.896,0.576 -0.896,1.152 V 60 h 20.8 c 0.512,0 0.64,-0.064 0.64,-0.32 v -3.712 l -3.008,-1.344 -8.96,-12.288 7.808,-10.496 3.072,-1.664 V 26.4 c 0,-0.256 -0.128,-0.32 -0.64,-0.32 h -13.184 z" fill="#37352F" aria-label="LorIAx"/>
</svg>
