<?xml version="1.0" encoding="UTF-8" standalone="no"?>
<svg
   width="32"
   height="32"
   viewBox="260 20 520 520"
   version="1.1"
   id="svg38"
   sodipodi:docname="favicon.svg"
   inkscape:version="1.4.3 (1:1.4.3+202512261035+0d15f75042)"
   xmlns:inkscape="http://www.inkscape.org/namespaces/inkscape"
   xmlns:sodipodi="http://sodipodi.sourceforge.net/DTD/sodipodi-0.dtd"
   xmlns="http://www.w3.org/2000/svg"
   xmlns:svg="http://www.w3.org/2000/svg">
  <title>LorIAx — Favicon</title>
  <defs
     id="defs38" />
  <sodipodi:namedview
     id="namedview38"
     pagecolor="#505050"
     bordercolor="#ffffff"
     borderopacity="1"
     inkscape:showpageshadow="0"
     inkscape:pageopacity="0"
     inkscape:pagecheckerboard="1"
     inkscape:deskcolor="#d1d1d1"
     inkscape:zoom="0.74609375"
     inkscape:cx="511.32984"
     inkscape:cy="512"
     inkscape:window-width="1920"
     inkscape:window-height="1008"
     inkscape:window-x="0"
     inkscape:window-y="40"
     inkscape:window-maximized="1"
     inkscape:current-layer="svg38" />
  <path
     fill="#141228"
     d="M428.774 202.794C426.357 196.642 423.748 190.334 422.373 183.874C417.355 160.298 420.16 133.429 428.987 111.208C438.137 154.581 467.431 198.151 496.941 230.422C501.492 235.399 509.686 245.096 514.517 249.325C558.492 240.012 604.306 245.349 644.963 264.522C647.375 247.582 653.711 237.463 661.103 222.187C665.959 212.329 670.422 202.282 674.481 192.07C679.911 178.01 684.26 163.555 687.491 148.833C688.956 141.87 689.75 134.599 691.166 127.751C700.373 148.234 705.868 171.721 705.839 194.264C705.829 201.378 704.878 206.299 704.26 212.969C711.942 205.034 715.859 196.578 718.766 186.033C723.934 209.513 720.934 224.932 708.76 246.098C716.3 243.624 719.287 242.261 725.335 237.113C719.762 255.474 704.228 282.618 687.269 292.397C703.442 305.007 715.925 323.75 721.914 343.325C723.815 349.541 724.806 356.013 726.722 362.506C734.875 387.781 732.411 419.308 725.447 444.763C723.021 453.633 719.7 461.653 716.605 470.25C794.987 525.602 777.822 618.704 729.305 686.886C707.511 717.429 680.224 743.649 648.835 764.206C639.573 770.255 629.785 774.753 620.488 780.381C616.751 782.643 609.64 791.21 606.276 794.505C592.307 808.188 576.678 817.294 559.097 825.383C558.864 825.49 559.511 828.163 560.006 828.786C562.611 829.785 565.658 830.323 568.414 830.842C578.275 832.698 588.113 834.987 597.965 836.843C603.041 834.509 614.544 828.192 620.073 830.665C634.919 837.306 643.794 840.661 640.143 859.439C636.893 851.874 633.967 847.08 625.686 844.747C625.034 844.564 624.972 844.446 624.319 844.031C623.221 839.907 619.966 839.802 616.268 838.798C615.717 838.652 615.465 838.594 614.906 838.498L614.507 839.715C615.2 839.836 615.799 839.902 616.493 839.984C620.735 840.908 620.992 841.34 624.043 844.201L624.028 844.643C623.957 846.296 623.988 846.463 623.334 848.052C623.773 849.792 626.701 851.261 628.168 852.768C633.437 858.177 632.392 867.253 630.876 873.839C627.758 868.268 624.737 862.353 619.567 858.399C608.042 864.919 606.855 859.435 597.725 854.486C596.687 853.923 595.916 855.234 592.964 852.842C592.177 851.959 591.676 851.372 590.699 850.724C588.201 849.795 588.406 849.996 585.512 849.86L587.181 850.854L588.352 851.059C590.026 851.947 590.991 852.516 592.612 853.51C593.512 855.322 593.493 855.376 593.914 857.383C595.575 858.782 597.315 858.99 598.717 860.095C607.231 866.802 607.496 877.169 603.549 886.259C601.028 877.484 598.633 873.218 589.728 869.747C578.903 873.177 571.189 876.9 565.387 863.751C550.458 857.731 536.677 855.525 521.223 861.204C518.497 862.206 519.087 862.752 515.685 862.577C514.252 861.465 510.995 860.008 509.323 859.528C508.687 857.963 508.157 856.181 507.691 854.548C501.893 855.452 500.784 855.288 495.505 857.813C498.972 858.393 506.058 859.561 509.235 860.626C511.301 861.498 513.383 862.352 515.519 863.038C518.532 865.71 519.47 866.589 522.765 869.016C531.281 875.288 531.795 885.778 528.081 895.125C526.135 887.026 524.278 884.27 517.501 879.087C499.311 889.308 502.457 876.531 489.376 872.258C488.48 871.892 487.494 871.719 486.557 871.487C486.286 872.158 486.269 872.284 486.114 872.994C487.099 873.161 487.64 873.256 488.649 873.316C491.435 874.483 494.55 875.268 495.645 878.049C497.387 882.472 502.268 883.441 504.985 889.091C508.543 896.491 506.748 902.585 504.499 909.801C502.922 903.735 500.09 894.602 493.505 892.408C482.27 896.98 475.709 896.144 470.88 884.305C445.963 875.756 428.547 872.962 402.895 881.387C402.254 881.145 401.619 880.885 400.993 880.606C394.635 877.712 397.694 872.703 396.634 869.934C383.603 869.916 381.146 880.325 376.588 889.693C376.221 879.47 376.796 864.03 387.566 858.764C395.461 854.904 403.237 858.514 410.732 861.425C414.038 858.049 419.703 857.038 424.218 856.8C421.338 850.002 420.421 847.079 418.787 839.827C405.671 829.51 402.75 827.362 392.667 813.737C356.459 837.439 338.538 846.283 296.794 858.508C308.165 844.871 312.126 841.466 315.711 823.291C299.476 838.28 262.969 853.221 240.964 855.744C245.132 849.012 249.929 842.978 254.552 836.572L276.194 806.391C257.045 818.91 237.188 830.311 216.722 840.538C209.38 844.217 200.802 848.616 193.223 851.54C194.968 847.209 196.578 842.825 198.052 838.395C203.143 824.68 208.85 810.629 213.705 796.968C218.209 784.642 222.875 771.114 227.749 759.029C233.227 745.111 238.174 730.8 243.362 716.772L280.911 614.217L296.374 571.562C299.775 562.039 303.242 550.397 307.776 541.51C314.305 528.715 321.356 515.275 329.129 503.246C338.175 488.52 360.317 463.078 375.809 456.226C375.1 450.558 375.267 439.786 375.353 434.024C376.067 386.251 389.405 339.266 419.889 301.821C427.995 291.864 435.744 285.088 444.901 276.366C423.417 263.358 411.768 255.345 406.294 229.377C416.823 236.674 422.267 239.009 434.362 242.458C415.724 228.01 405.989 207.1 405.126 183.788C405.137 183.238 404.796 179.202 406.242 181.5L407.128 182.94C414.916 194.146 416.799 195.878 428.774 202.794ZM576.129 794.776C575.169 792.195 575.201 792.984 572.554 792.647C571.977 793.101 571.385 793.543 570.844 794.039L571.402 796.421C572.901 795.828 574.535 795.394 576.129 794.776ZM460.398 843.44L462.131 850.853C470.856 851.922 476.742 853.069 485.208 855.112C486.4 850.765 487.557 848.299 490.931 845.148C499.971 838.63 501.865 839.871 511.387 841.825C512.331 842.019 521.392 839.219 524.134 838.76L521.883 830.615C509.486 828.589 497.317 825.606 485.988 820.061C479.874 827.407 468.546 839.025 460.398 843.44ZM502.537 797.254C502.439 797.379 502.13 797.681 502.097 797.91C502.299 797.973 502.675 797.796 502.801 797.757C502.898 797.637 503.227 797.324 503.264 797.092C503.09 797.039 502.896 797.143 502.537 797.254Z"
     id="path1" />
  <path
     fill="#65719A"
     fill-opacity="0.94509804"
     d="M570.844 794.039C571.385 793.543 571.977 793.101 572.554 792.647C575.201 792.984 575.169 792.195 576.129 794.776C574.535 795.394 572.901 795.828 571.402 796.421L570.844 794.039Z"
     id="path2" />
  <path
     fill="#292F44"
     d="M428.774 202.794C426.357 196.642 423.748 190.334 422.373 183.874C417.355 160.298 420.16 133.429 428.987 111.208C438.137 154.581 467.431 198.151 496.941 230.422C501.492 235.399 509.686 245.096 514.517 249.325C558.492 240.012 604.306 245.349 644.963 264.522C647.375 247.582 653.711 237.463 661.103 222.187C665.959 212.329 670.422 202.282 674.481 192.07C679.911 178.01 684.26 163.555 687.491 148.833C688.956 141.87 689.75 134.599 691.166 127.751C700.373 148.234 705.868 171.721 705.839 194.264C705.829 201.378 704.878 206.299 704.26 212.969C711.942 205.034 715.859 196.578 718.766 186.033C723.934 209.513 720.934 224.932 708.76 246.098C716.3 243.624 719.287 242.261 725.335 237.113C719.762 255.474 704.228 282.618 687.269 292.397C703.442 305.007 715.925 323.75 721.914 343.325C723.815 349.541 724.806 356.013 726.722 362.506C734.875 387.781 732.411 419.308 725.447 444.763C723.021 453.633 719.7 461.653 716.605 470.25C715.408 473.019 714.362 475.464 712.958 478.14C718.954 491.854 726.09 513.148 728.314 527.899C721.896 536.723 715.768 546.18 709.686 555.274L682.55 530.934C677.713 526.639 671.766 521.757 667.361 517.258C650.529 532.533 633.559 547.657 616.456 562.627C602.313 551.536 583.959 532.815 569.759 520.222C552.196 531.846 531.997 542.158 514.526 553.629L497.983 541.02C497.432 539.004 496.952 531.125 496.679 528.583C491.631 481.678 454.958 440.991 405.225 446.942C394.085 448.275 386.065 451.554 375.809 456.226C375.1 450.558 375.267 439.786 375.353 434.024C376.067 386.251 389.405 339.266 419.889 301.821C427.995 291.864 435.744 285.088 444.901 276.366C423.417 263.358 411.768 255.345 406.294 229.377C416.823 236.674 422.267 239.009 434.362 242.458C415.724 228.01 405.989 207.1 405.126 183.788C405.137 183.238 404.796 179.202 406.242 181.5L407.128 182.94C414.916 194.146 416.799 195.878 428.774 202.794Z"
     id="path3" />
  <path
     fill="#141228"
     d="M677.555 285.163C681.297 287.533 684.015 289.422 687.269 292.397C703.442 305.007 715.925 323.75 721.914 343.325C723.815 349.541 724.806 356.013 726.722 362.506C725.55 363.715 724.8 365.137 725.142 366.835C724.999 368.378 724.798 369.818 724.64 371.336L726.016 371.927C726.276 399.257 719.045 422.002 699.374 442.849C683.217 459.973 654.147 472.862 630.282 475.444C630.037 475.437 629.792 475.429 629.547 475.422C628.421 476.467 627.205 477.543 626.16 478.661L625.001 476.991C625.554 476.196 625.996 475.362 626.451 474.509C629.265 469.955 631.739 465.199 633.851 460.28C643.55 437.337 645.044 411.666 635.607 388.411L636.827 387.213C638.856 385.016 641.932 373.893 644.116 369.866C644.42 366.627 654.169 340.81 656.055 338.441C656.613 334.809 664.113 317.205 666.035 312.564C668.182 306.229 674.671 292.319 677.555 285.163Z"
     id="path4" />
  <path
     fill="#C48740"
     d="M666.035 312.564C679.597 312.554 693.097 317.607 702.76 327.242C711.653 336.254 716.643 348.402 716.652 361.062C716.661 373.953 711.429 386.295 702.157 395.251C692.887 404.33 680.338 409.273 667.365 408.955C660.171 408.815 654.893 407.215 648.223 404.811C644.777 397.527 642.839 392.798 636.827 387.213C638.856 385.016 641.932 373.893 644.116 369.866C644.42 366.627 654.169 340.81 656.055 338.441C656.613 334.809 664.113 317.205 666.035 312.564Z"
     id="path5" />
  <path
     fill="#181818"
     d="M656.055 338.441C663.402 335.105 670.157 333.85 678.023 336.894C684.565 339.399 689.829 344.422 692.639 350.839C706.328 382.352 658.157 402.571 644.116 369.866C644.42 366.627 654.169 340.81 656.055 338.441Z"
     id="path6" />
  <path
     fill="#63709A"
     d="M724.64 371.336L726.016 371.927C726.276 399.257 719.045 422.002 699.374 442.849C683.217 459.973 654.147 472.862 630.282 475.444C630.037 475.437 629.792 475.429 629.547 475.422C643.944 456.069 646.937 444.628 650.586 420.878C651.011 420.969 651.436 421.057 651.862 421.142C668.68 424.643 686.199 421.238 700.481 411.692C715.142 401.76 721.335 388.195 724.64 371.336Z"
     id="path7" />
  <path
     fill="#63709A"
     d="M615.19 477.785C572.537 479.844 525.597 475.067 487.387 454.593C463.794 441.943 441.567 422.296 434.455 395.4C421.667 347.042 445.552 304.036 493.297 290.436C488.908 294.757 484.645 299.203 480.513 303.769C451.818 335.986 447.533 384.26 481.911 414.036C496.287 426.65 515.192 432.842 534.245 431.178C544.878 430.351 563.849 424.907 570.835 416.736C574.238 418.241 577.522 421.52 580.43 423.917C598.526 438.83 608.796 455.423 615.19 477.785Z"
     id="path8" />
  <path
     fill="#63709A"
     d="M514.517 249.325C558.492 240.012 604.306 245.349 644.963 264.522C652.458 267.653 662.595 273.826 669.221 278.5C659.656 302.639 643.956 323.865 623.673 340.078C608.717 317.366 570.664 293.129 548.436 277.668C535.711 268.818 525.606 260.151 514.517 249.325Z"
     id="path9" />
  <path
     fill="#C48740"
     d="M582.937 414.242L582.704 413.955C583.186 412.595 589.607 406.102 591.274 404.191C599.696 394.539 604.6 372.526 621.202 376.383C628.338 378.041 632.108 382.489 635.607 388.411C645.044 411.666 643.55 437.337 633.851 460.28C631.739 465.199 629.265 469.955 626.451 474.509C625.996 475.362 625.554 476.196 625.001 476.991L626.16 478.661C625.362 480.496 618.658 488.352 616.95 490.468C616.507 486.252 616.17 481.897 615.19 477.785C608.796 455.423 598.526 438.83 580.43 423.917C577.522 421.52 574.238 418.241 570.835 416.736L570.466 416.395C572.13 415.166 580.102 414.624 582.937 414.242Z"
     id="path10" />
  <path
     fill="#141228"
     d="M582.937 414.242C593.584 417.46 616.714 434.013 621.821 444.998C626.271 454.57 627.057 460.685 625.892 470.784C626.093 472.023 626.28 473.265 626.451 474.509C625.996 475.362 625.554 476.196 625.001 476.991L626.16 478.661C625.362 480.496 618.658 488.352 616.95 490.468C616.507 486.252 616.17 481.897 615.19 477.785C608.796 455.423 598.526 438.83 580.43 423.917C577.522 421.52 574.238 418.241 570.835 416.736L570.466 416.395C572.13 415.166 580.102 414.624 582.937 414.242Z"
     id="path11" />
  <path
     fill="#C48740"
     d="M625.001 476.991C625.253 474.948 625.488 472.791 625.892 470.784C626.093 472.023 626.28 473.265 626.451 474.509C625.996 475.362 625.554 476.196 625.001 476.991Z"
     id="path12" />
  <path
     fill="#141228"
     d="M613.826 402.384C619.352 402.5 620.337 407.172 622.934 411.498C623.183 411.912 623.6 412.924 623.415 413.443L623.263 413.487C622.826 413.305 622.521 412.919 622.176 412.59C619.025 410.049 615.681 408.046 611.973 406.435C609.01 405.148 612.152 403.636 613.826 402.384Z"
     id="path13" />
  <path
     fill="#65719A"
     d="M725.142 366.835C726.329 368.893 726.066 369.291 726.016 371.927L724.64 371.336C724.798 369.818 724.999 368.378 725.142 366.835Z"
     id="path14" />
  <path
     fill="#272A4B"
     d="M405.126 183.788C405.137 183.238 404.796 179.202 406.242 181.5L407.128 182.94L405.126 183.788Z"
     id="path15" />
  <path
     fill="#C48740"
     d="M520.575 307.744C550.938 304.452 578.238 326.354 581.606 356.709C584.975 387.063 563.141 414.418 532.795 417.863C502.341 421.32 474.867 399.392 471.486 368.929C468.106 338.466 490.104 311.048 520.575 307.744Z"
     id="path16" />
  <path
     fill="#181818"
     d="M521.777 334.04C532.408 332.272 543.167 336.363 549.937 344.748C556.708 353.132 558.44 364.512 554.472 374.532C550.503 384.551 541.449 391.659 530.773 393.134C514.58 395.371 499.593 384.185 497.133 368.024C494.672 351.863 505.651 336.723 521.777 334.04Z"
     id="path17" />
  <path
     fill="#63709A"
     d="M667.361 517.258C671.766 521.757 677.713 526.639 682.55 530.934L709.686 555.274C715.768 546.18 721.896 536.723 728.314 527.899L730.744 549.114C732.384 552.936 730.305 588.97 728.71 595.874C726.808 605.922 724.217 619.448 720.286 628.943C718.553 638.678 704.771 670.857 699.445 678.532C676.801 719.569 642.326 757.759 601.819 781.642C594.485 785.967 584.025 792.005 576.129 794.776C575.169 792.195 575.201 792.984 572.554 792.647C589.987 776.716 598.295 767.363 610.648 747.13L609.934 746.296C581.209 772.924 538.656 793.878 499.848 799.518C501.951 793.877 504.442 788.429 506.353 782.743C509.735 772.678 512.256 761.274 513.806 750.741C513.726 748.801 513.915 748.96 512.814 747.418C504.1 770.899 493.78 790.064 475.483 807.855C472.33 810.921 466.388 816.185 462.569 818.341C455.302 822.839 448.595 827.854 447.983 814.695C447.772 810.15 447.525 805.131 446.919 800.634C444.554 807.547 435.876 831.722 427.087 831.026C423.12 827.851 414.832 814.381 413.269 809.401C401.525 784.315 399.73 745.896 407.666 719.482C409.55 717.658 412.178 715.575 414.246 713.932C435.688 696.899 451.333 676.922 464.975 653.228C469.211 644.532 474.71 634.556 479.269 625.429C482.591 617.942 485.753 610.776 488.206 602.946C492.839 588.283 494.637 580.643 496.916 565.29C497.907 557.24 498.264 549.126 497.983 541.02L514.526 553.629C531.997 542.158 552.196 531.846 569.759 520.222C583.959 532.815 602.313 551.536 616.456 562.627C633.559 547.657 650.529 532.533 667.361 517.258ZM502.801 797.757C502.898 797.637 503.227 797.324 503.264 797.092C503.09 797.039 502.896 797.143 502.537 797.254C502.439 797.379 502.13 797.681 502.097 797.91C502.299 797.973 502.675 797.796 502.801 797.757Z"
     id="path18" />
  <path
     fill="#292F44"
     d="M667.361 517.258C671.766 521.757 677.713 526.639 682.55 530.934L709.686 555.274C715.768 546.18 721.896 536.723 728.314 527.899L730.744 549.114C732.384 552.936 730.305 588.97 728.71 595.874C726.808 605.922 724.217 619.448 720.286 628.943C718.553 638.678 704.771 670.857 699.445 678.532C692.734 670.453 685.63 662.759 678.71 654.872C674.935 650.569 670.555 645.984 667.257 641.353C660.713 645.709 653.106 651.516 646.687 656.181C631.619 667.046 616.706 678.122 601.95 689.406C585.206 673.47 568.855 655.609 552.378 639.284C533.109 652.71 510.486 665.585 490.338 679.116C482.124 670.373 473.334 662.195 464.975 653.228C469.211 644.532 474.71 634.556 479.269 625.429C482.591 617.942 485.753 610.776 488.206 602.946C492.839 588.283 494.637 580.643 496.916 565.29C497.907 557.24 498.264 549.126 497.983 541.02L514.526 553.629C531.997 542.158 552.196 531.846 569.759 520.222C583.959 532.815 602.313 551.536 616.456 562.627C633.559 547.657 650.529 532.533 667.361 517.258Z"
     id="path19" />
  <path
     fill="#292F44"
     d="M667.361 517.258C671.766 521.757 677.713 526.639 682.55 530.934L709.686 555.274C715.768 546.18 721.896 536.723 728.314 527.899L730.744 549.114C732.384 552.936 730.305 588.97 728.71 595.874C723.789 600.191 714.181 611.22 709.31 616.467C695.989 603.469 683.146 589.309 669.882 576.068C651.617 593.438 629.687 609.185 610.862 626.257C594.161 610.831 577.61 593.836 561.49 577.718C541.961 590.308 521.448 602.056 502.17 614.735C499.312 612.453 490.328 603.801 488.206 602.946C492.839 588.283 494.637 580.643 496.916 565.29C497.907 557.24 498.264 549.126 497.983 541.02L514.526 553.629C531.997 542.158 552.196 531.846 569.759 520.222C583.959 532.815 602.313 551.536 616.456 562.627C633.559 547.657 650.529 532.533 667.361 517.258Z"
     id="path20" />
  <path
     fill="#63709A"
     d="M667.361 517.258C671.766 521.757 677.713 526.639 682.55 530.934L709.686 555.274C715.768 546.18 721.896 536.723 728.314 527.899L730.744 549.114C730.642 552.719 713.923 576.591 710.869 581.017C696.757 568.312 682.995 554.806 668.588 541.844C653.687 555.766 637.405 568.701 622.19 582.318C619.599 584.637 616.726 587.159 613.967 589.234C607.303 583.447 600.038 575.84 593.716 569.469C584.534 560.165 575.267 550.946 565.915 541.813C547.576 552.55 529.15 564.997 510.481 576.027C506.337 572.772 500.8 568.663 496.916 565.29C497.907 557.24 498.264 549.126 497.983 541.02L514.526 553.629C531.997 542.158 552.196 531.846 569.759 520.222C583.959 532.815 602.313 551.536 616.456 562.627C633.559 547.657 650.529 532.533 667.361 517.258Z"
     id="path21" />
  <path
     fill="#63709A"
     d="M610.862 626.257C629.687 609.185 651.617 593.438 669.882 576.068C683.146 589.309 695.989 603.469 709.31 616.467C714.181 611.22 723.789 600.191 728.71 595.874C726.808 605.922 724.217 619.448 720.286 628.943L704.736 644.034C692.253 630.603 679.667 616.223 667.445 602.469C658.726 611.14 648.345 620.028 639.112 628.253C628.635 637.585 617.779 647.387 606.857 656.096C589.529 639.587 570.659 621.351 554.033 604.201C535.361 617.088 515.28 629.622 496.058 641.784C490.578 636.247 484.805 631.061 479.269 625.429C482.591 617.942 485.753 610.776 488.206 602.946C490.328 603.801 499.312 612.453 502.17 614.735C521.448 602.056 541.961 590.308 561.49 577.718C577.61 593.836 594.161 610.831 610.862 626.257Z"
     id="path22" />
  <path
     fill="#292F44"
     d="M443.906 765.289C443.914 788.37 448.107 800.701 462.569 818.341C455.302 822.839 448.595 827.854 447.983 814.695C447.772 810.15 447.525 805.131 446.919 800.634C444.554 807.547 435.876 831.722 427.087 831.026C423.12 827.851 414.832 814.381 413.269 809.401C425.798 798.138 436.947 780.827 443.906 765.289Z"
     id="path23" />
  <path
     fill="#272A4B"
     d="M514.754 740.057C514.761 743.013 514.437 747.869 513.806 750.741C513.726 748.801 513.915 748.96 512.814 747.418C513.34 745.041 514.171 742.518 514.754 740.057Z"
     id="path24" />
  <path
     fill="#272A4B"
     d="M609.934 746.296C610.121 746.094 611.375 744.484 611.781 744.837C611.962 745.422 610.909 746.724 610.648 747.13L609.934 746.296Z"
     id="path25" />
  <path
     fill="#63709A"
     fill-opacity="0.91764706"
     d="M502.537 797.254C502.896 797.143 503.09 797.039 503.264 797.092C503.227 797.324 502.898 797.637 502.801 797.757C502.675 797.796 502.299 797.973 502.097 797.91C502.13 797.681 502.439 797.379 502.537 797.254Z"
     id="path26" />
  <path
     fill="#292F44"
     d="M329.129 503.246C332.799 503.307 334.793 501.273 337.202 498.505C390.631 437.12 480.664 470.532 477.372 553.465C475.116 610.263 439.264 657.421 399.985 695.65C385.448 709.439 368.974 719.377 352.805 730.775L271.564 787.756L225.695 819.818C220.028 823.817 203.664 836.074 198.052 838.395C203.143 824.68 208.85 810.629 213.705 796.968C218.209 784.642 222.875 771.114 227.749 759.029C233.227 745.111 238.174 730.8 243.362 716.772L280.911 614.217L296.374 571.562C299.775 562.039 303.242 550.397 307.776 541.51C314.305 528.715 321.356 515.275 329.129 503.246Z"
     id="path27" />
  <path
     fill="#141228"
     d="M227.749 759.029C236.108 755.018 252.38 743.208 261.254 737.529C295.802 715.417 329.728 691.67 364.759 670.241C370.957 666.45 384.747 656.108 390.368 653.875C341.607 696.884 289.087 736.374 238.765 777.578C234.79 780.833 217.29 795.63 213.705 796.968C218.209 784.642 222.875 771.114 227.749 759.029Z"
     id="path28" />
  <path
     fill="#BDBFC3"
     d="M614.507 839.715C613.178 839.607 605.905 840.419 606.245 839.769L606.32 839.925C607.675 838.006 612.862 838.35 614.906 838.498L614.507 839.715Z"
     id="path29" />
  <path
     fill="#DADCDB"
     d="M486.114 872.994C484.855 872.85 480.444 872.896 480.198 872.806C479.453 871.063 485.756 871.483 486.557 871.487C486.286 872.158 486.269 872.284 486.114 872.994Z"
     id="path30" />
  <path
     fill="#65719A"
     d="M570.844 794.039L571.402 796.421C569.553 797.054 567.701 797.612 565.839 798.203C567.503 796.786 569.179 795.445 570.844 794.039Z"
     id="path31" />
  <path
     fill="#BDBFC3"
     d="M587.181 850.854C586.279 850.863 581.489 851.451 581.312 850.909C582.118 849.89 584.345 849.676 585.512 849.86L587.181 850.854Z"
     id="path32" />
  <path
     fill="#DADCDB"
     fill-opacity="0.97254902"
     d="M616.268 838.798C619.966 839.802 623.221 839.907 624.319 844.031L624.043 844.201C620.992 841.34 620.735 840.908 616.493 839.984L616.268 838.798Z"
     id="path33" />
  <path
     fill="#292F44"
     fill-opacity="0.94901961"
     d="M509.323 859.528C510.995 860.008 514.252 861.465 515.685 862.577L515.519 863.038C513.383 862.352 511.301 861.498 509.235 860.626L509.323 859.528Z"
     id="path34" />
  <path
     fill="#FEFEFE"
     fill-opacity="0.20784314"
     d="M590.699 850.724C591.676 851.372 592.177 851.959 592.964 852.842L592.612 853.51C590.991 852.516 590.026 851.947 588.352 851.059L590.699 850.724Z"
     id="path35" />
  <path
     fill="#FEFEFE"
     fill-opacity="0.41960785"
     d="M486.557 871.487C487.494 871.719 488.48 871.892 489.376 872.258C488.889 872.764 488.853 872.718 488.649 873.316C487.64 873.256 487.099 873.161 486.114 872.994C486.269 872.284 486.286 872.158 486.557 871.487Z"
     id="path36" />
  <path
     fill="#FEFEFE"
     fill-opacity="0.047058824"
     d="M585.512 849.86C588.406 849.996 588.201 849.795 590.699 850.724L588.352 851.059L587.181 850.854L585.512 849.86Z"
     id="path37" />
  <path
     fill="#BDBFC3"
     fill-opacity="0.83137256"
     d="M614.906 838.498C615.465 838.594 615.717 838.652 616.268 838.798L616.493 839.984C615.799 839.902 615.2 839.836 614.507 839.715L614.906 838.498Z"
     id="path38" />
</svg>
